<?xml version="1.0" standalone="no"?>
<!DOCTYPE svg PUBLIC "-//W3C//DTD SVG 20010904//EN"
 "http://www.w3.org/TR/2001/REC-SVG-20010904/DTD/svg10.dtd">
<svg version="1.0" xmlns="http://www.w3.org/2000/svg"
 width="700.000000pt" height="700.000000pt" viewBox="0 0 700.000000 700.000000"
 preserveAspectRatio="xMidYMid meet">
<metadata>
Created by potrace 1.11, written by Peter Selinger 2001-2013
</metadata>
<g transform="translate(0.000000,700.000000) scale(0.100000,-0.100000)"
fill="#000000" stroke="none">
<path d="M1171 6089 c-13 -5 -78 -62 -145 -127 -66 -64 -160 -155 -208 -202
-53 -52 -90 -96 -94 -112 -3 -16 -10 -28 -15 -28 -5 0 -9 -12 -9 -27 0 -16 0
-35 -1 -43 -4 -42 12 -112 33 -141 13 -18 230 -239 483 -491 253 -252 465
-463 470 -468 91 -93 1453 -1454 1477 -1477 62 -57 119 -82 183 -82 47 1 63 6
86 26 16 14 33 40 38 57 10 31 11 976 1 1006 -15 46 -88 127 -300 334 -33 32
-60 62 -60 67 0 5 -4 9 -8 9 -5 0 -37 28 -70 62 -34 33 -62 65 -62 70 0 4 -4
8 -9 8 -11 0 -131 121 -131 132 0 4 -4 8 -10 8 -12 0 -70 59 -70 71 0 5 -4 9
-8 9 -7 0 -138 128 -215 210 -8 8 -45 44 -83 81 -38 36 -81 80 -96 98 -16 18
-28 30 -28 27 0 -2 -27 22 -60 56 -33 33 -60 64 -60 69 0 5 -4 9 -9 9 -11 0
-211 200 -211 211 0 5 -4 9 -9 9 -11 0 -401 390 -401 401 0 5 -4 9 -8 9 -4 0
-44 35 -88 78 -56 55 -90 81 -113 85 -48 10 -162 7 -190 -4z"/>
<path d="M5650 6084 c-17 -7 -93 -76 -170 -154 -77 -77 -144 -140 -150 -140
-5 0 -10 -4 -10 -10 0 -12 -889 -900 -901 -900 -5 0 -9 -4 -9 -9 0 -5 -181
-191 -403 -412 -359 -360 -462 -469 -442 -469 3 0 1 -9 -5 -21 -13 -23 -17
-962 -4 -1001 4 -13 20 -36 36 -51 43 -42 111 -41 196 2 34 17 62 36 62 41 0
6 5 10 10 10 20 0 2427 2414 2447 2455 25 49 30 177 7 196 -7 6 -12 15 -9 19
2 4 -43 55 -100 115 -58 59 -105 103 -105 99 0 -5 -4 -2 -10 6 -14 23 -182
190 -213 212 -23 17 -46 21 -113 22 -49 1 -97 -3 -114 -10z"/>
<path d="M690 5222 c-70 -38 -65 100 -64 -1738 0 -1431 2 -1664 15 -1677 46
-48 282 -286 358 -361 50 -49 91 -93 91 -98 0 -4 4 -8 8 -8 4 0 35 -26 68 -57
34 -32 76 -72 95 -89 19 -17 41 -39 50 -50 23 -27 57 -54 69 -54 6 0 10 -4 10
-8 0 -16 62 -30 119 -28 57 2 91 19 91 45 0 6 4 11 10 11 6 0 6 9 0 24 -5 13
-6 26 -3 30 7 7 6 153 -1 165 -4 5 -2 12 3 16 7 3 7 15 1 29 -5 13 -7 26 -4
29 7 6 6 635 -1 646 -3 5 -1 12 4 16 7 3 7 15 1 29 -5 13 -6 26 -3 30 7 7 6
153 -1 165 -4 5 -2 12 3 16 7 3 7 15 1 29 -5 13 -6 26 -4 29 8 7 7 314 0 326
-4 5 -2 12 3 16 7 3 7 15 1 29 -5 13 -6 26 -3 30 7 7 6 153 -1 165 -4 5 -2 12
3 16 7 3 7 15 1 30 -5 13 -6 26 -2 29 4 2 5 43 2 91 -3 48 -2 89 2 91 4 3 3
15 -2 28 -5 13 -6 26 -3 30 7 7 6 153 -1 165 -4 5 -2 12 3 15 5 3 5 21 1 41
-4 19 -4 37 1 40 4 3 4 17 -1 30 -5 13 -6 26 -2 29 5 3 5 30 2 61 -3 30 -5 57
-3 59 4 3 5 524 2 543 -1 4 -1 13 0 18 7 33 -2 181 -11 203 -6 15 -48 63 -92
108 -45 45 -209 210 -366 368 -157 158 -292 291 -301 296 -8 5 -38 12 -65 15
-38 5 -57 2 -84 -13z"/>
<path d="M6247 5233 c-3 -2 -11 -6 -19 -7 -38 -6 -97 -59 -353 -318 -154 -156
-292 -297 -306 -313 -14 -17 -53 -55 -87 -85 -33 -30 -58 -58 -55 -63 2 -4 0
-13 -5 -20 -13 -17 -14 -88 -13 -1647 1 -1697 1 -1656 18 -1691 22 -43 75 -54
191 -38 16 3 123 105 499 480 l292 292 1 1655 c0 1281 -3 1662 -12 1683 -7 15
-29 37 -50 49 -36 20 -91 33 -101 23z"/>
</g>
</svg>
