<svg fill="#000000" xmlns="http://www.w3.org/2000/svg"  viewBox="0 0 100 100" width="50px" height="50px"><path d="M 50 15 C 29.622577 15 13 30.185407 13 49 C 13 59.350589 18.084468 68.582817 26 74.806641 L 26 88 A 1.0001 1.0001 0 0 0 27.490234 88.871094 L 40.15625 81.746094 C 43.293494 82.541751 46.586414 83 50 83 C 70.377423 83 87 67.814593 87 49 C 87 30.185407 70.377423 15 50 15 z M 50 17 C 69.386577 17 85 31.364593 85 49 C 85 66.635407 69.386577 81 50 81 C 46.61139 81 43.340925 80.549974 40.242188 79.728516 A 1.0001 1.0001 0 0 0 39.494141 79.824219 L 28 86.291016 L 28 74.384766 A 1.0001 1.0001 0 0 0 27.605469 73.589844 C 19.885877 67.70538 15 58.877671 15 49 C 15 31.364593 30.613423 17 50 17 z M 50 20 C 32.358513 20 18 32.961334 18 49 C 18 65.038666 32.358513 78 50 78 C 67.641487 78 82 65.038666 82 49 C 82 45.982713 81.490393 43.073686 80.546875 40.337891 A 0.50005 0.50005 0 1 0 79.601562 40.662109 C 80.510044 43.296314 81 46.095287 81 49 C 81 64.441334 67.152513 77 50 77 C 32.847487 77 19 64.441334 19 49 C 19 33.558666 32.847487 21 50 21 C 56.817579 21 63.111282 22.993158 68.224609 26.357422 A 0.500538 0.500538 0 1 0 68.775391 25.521484 C 63.498718 22.049749 57.012421 20 50 20 z M 70.482422 26.867188 A 0.50005 0.50005 0 0 0 70.193359 27.765625 C 72.109021 29.253288 73.819072 30.946494 75.283203 32.808594 A 0.50005 0.50005 0 1 0 76.068359 32.191406 C 74.552491 30.263506 72.784979 28.512899 70.806641 26.976562 A 0.50005 0.50005 0 0 0 70.482422 26.867188 z M 77.115234 33.994141 A 0.50005 0.50005 0 0 0 76.697266 34.773438 C 76.911597 35.100887 77.121203 35.427608 77.316406 35.755859 A 0.50009517 0.50009517 0 1 0 78.175781 35.244141 C 77.968984 34.896392 77.752825 34.559112 77.535156 34.226562 A 0.50005 0.50005 0 0 0 77.115234 33.994141 z M 46.513672 39 A 0.50005 0.50005 0 0 0 46.138672 39.154297 L 26.138672 60.154297 A 0.50005 0.50005 0 0 0 26.732422 60.943359 L 45.367188 51.134766 L 53.109375 60.8125 A 0.50005 0.50005 0 0 0 53.861328 60.845703 L 73.861328 39.845703 A 0.50005 0.50005 0 0 0 73.296875 39.042969 L 55.591797 46.912109 L 46.832031 39.126953 A 0.50005 0.50005 0 0 0 46.513672 39 z M 46.529297 40.195312 L 55.167969 47.873047 A 0.50005 0.50005 0 0 0 55.703125 47.957031 L 71.398438 40.980469 L 53.533203 59.740234 L 45.890625 50.1875 A 0.50005 0.50005 0 0 0 45.267578 50.056641 L 28.964844 58.636719 L 46.529297 40.195312 z"/></svg>