<?xml version="1.0" encoding="UTF-8"?>
<svg xmlns="http://www.w3.org/2000/svg" xmlns:xlink="http://www.w3.org/1999/xlink" width="64pt" height="64pt" viewBox="0 0 64 64" version="1.1">
<defs>
<radialGradient id="radial0" gradientUnits="userSpaceOnUse" cx="86" cy="84.65625" fx="86" fy="84.65625" r="84.00856" gradientTransform="matrix(0.372093,0,0,0.372093,0,0)">
<stop offset="0" style="stop-color:rgb(77.254903%,94.509804%,100%);stop-opacity:1;"/>
<stop offset="0.35" style="stop-color:rgb(80.392158%,95.294118%,100%);stop-opacity:1;"/>
<stop offset="0.907" style="stop-color:rgb(89.411765%,98.039216%,100%);stop-opacity:1;"/>
<stop offset="1" style="stop-color:rgb(91.37255%,98.431373%,100%);stop-opacity:1;"/>
</radialGradient>
<linearGradient id="linear0" gradientUnits="userSpaceOnUse" x1="86" y1="159.586441" x2="86" y2="41.336441" gradientTransform="matrix(0.372093,0,0,0.372093,0,0)">
<stop offset="0" style="stop-color:rgb(8.235294%,36.078432%,87.058824%);stop-opacity:1;"/>
<stop offset="0.278" style="stop-color:rgb(12.156863%,49.803922%,89.803922%);stop-opacity:1;"/>
<stop offset="0.569" style="stop-color:rgb(15.294118%,61.176473%,92.156863%);stop-opacity:1;"/>
<stop offset="0.82" style="stop-color:rgb(17.254902%,68.627453%,93.725491%);stop-opacity:1;"/>
<stop offset="1" style="stop-color:rgb(18.039216%,70.980394%,94.117647%);stop-opacity:1;"/>
</linearGradient>
</defs>
<g id="surface11829591">
<rect x="0" y="0" width="64" height="64" style="fill:rgb(100%,100%,100%);fill-opacity:1;stroke:none;"/>
<path style=" stroke:none;fill-rule:nonzero;fill:url(#radial0);" d="M 58 54 C 56.894531 54 56 53.105469 56 52 C 56 50.894531 56.894531 50 58 50 L 60.5 50 C 62.425781 50 64 48.425781 64 46.5 C 64 44.574219 62.425781 43 60.5 43 L 50 43 C 48.617188 43 47.5 41.882812 47.5 40.5 C 47.5 39.117188 48.617188 38 50 38 L 58 38 C 59.648438 38 61 36.648438 61 35 C 61 33.351562 59.648438 32 58 32 L 42 32 L 42 26 L 60 26 C 62.335938 26 64.21875 23.972656 63.980469 21.589844 C 63.769531 19.515625 61.898438 18 59.8125 18 L 58 18 C 56.894531 18 56 17.105469 56 16 C 56 14.894531 56.894531 14 58 14 L 58.355469 14 C 59.664062 14 60.855469 13.058594 60.988281 11.757812 C 61.136719 10.261719 59.964844 9 58.5 9 L 44.5 9 C 43.671875 9 43 8.328125 43 7.5 C 43 6.671875 43.671875 6 44.5 6 L 48.355469 6 C 49.664062 6 50.855469 5.058594 50.988281 3.757812 C 51.136719 2.261719 49.964844 1 48.5 1 L 15.644531 1 C 14.335938 1 13.144531 1.941406 13.011719 3.242188 C 12.863281 4.738281 14.035156 6 15.5 6 L 19 6 C 20.105469 6 21 6.894531 21 8 C 21 9.105469 20.105469 10 19 10 L 6.1875 10 C 4.101562 10 2.230469 11.515625 2.019531 13.589844 C 1.78125 15.972656 3.664062 18 6 18 L 8.5 18 C 10.433594 18 12 19.566406 12 21.5 C 12 23.433594 10.433594 25 8.5 25 L 5.1875 25 C 3.101562 25 1.230469 26.515625 1.019531 28.589844 C 0.78125 30.972656 2.664062 33 5 33 L 22 33 L 22 44 L 6 44 C 4.351562 44 3 45.351562 3 47 C 3 48.648438 4.351562 50 6 50 C 7.105469 50 8 50.894531 8 52 C 8 53.105469 7.105469 54 6 54 L 4.1875 54 C 2.101562 54 0.230469 55.515625 0.0195312 57.589844 C -0.21875 59.972656 1.664062 62 4 62 L 57.8125 62 C 59.898438 62 61.769531 60.484375 61.980469 58.410156 C 62.21875 56.027344 60.335938 54 58 54 Z M 58 54 "/>
<path style=" stroke:none;fill-rule:nonzero;fill:url(#linear0);" d="M 50 12 L 14 12 C 11.789062 12 10 13.789062 10 16 L 10 52 C 10 54.210938 11.789062 56 14 56 L 50 56 C 52.210938 56 54 54.210938 54 52 L 54 16 C 54 13.789062 52.210938 12 50 12 Z M 50 12 "/>
<path style=" stroke:none;fill-rule:nonzero;fill:rgb(100%,100%,100%);fill-opacity:1;" d="M 19 28 L 21 28 C 22.105469 28 23 28.894531 23 30 L 23 47 C 23 48.105469 22.105469 49 21 49 L 19 49 C 17.894531 49 17 48.105469 17 47 L 17 30 C 17 28.894531 17.894531 28 19 28 Z M 19.980469 25 L 19.949219 25 C 18.15625 25 17 23.664062 17 22 C 17 20.292969 18.195312 19 20.019531 19 C 21.84375 19 22.96875 20.292969 23 22 C 23 23.664062 21.84375 25 19.980469 25 Z M 45 49 L 43 49 C 41.894531 49 41 48.105469 41 47 L 41 37.628906 C 41 34.878906 39.492188 33.003906 36.761719 33.003906 C 34.808594 33.003906 33.628906 34.269531 33.136719 35.488281 C 32.953125 35.929688 33 37.140625 33 37.75 L 33 47 C 33 48.105469 32.113281 49 31.007812 49 L 29 49 C 27.894531 49 27 48.105469 27 47 L 27 30 C 27 28.894531 27.894531 28 29 28 L 31.007812 28 C 32.113281 28 33.007812 28.894531 33.007812 30 L 33.007812 31.019531 C 33.910156 29.625 35.5625 28 39.171875 28 C 43.644531 28 47 30.5625 47 36.84375 L 47 47 C 47 48.105469 46.105469 49 45 49 Z M 45 49 "/>
<path style=" stroke:none;fill-rule:nonzero;fill:rgb(80.000001%,80.000001%,80.000001%);fill-opacity:1;" d="M 36.910156 25.652344 L 36.910156 27.027344 L 32.828125 27.027344 L 32.828125 38.347656 L 31.160156 38.347656 L 31.160156 27.027344 L 27.089844 27.027344 L 27.089844 25.652344 Z M 36.910156 25.652344 "/>
</g>
</svg>
